<svg id="Capa_1" data-name="Capa 1" xmlns="http://www.w3.org/2000/svg" viewBox="0 0 431.72 401.23"><defs><style>.cls-1{fill:#2a3984;}.cls-2{fill:#009ee1;}.cls-3{fill:#fef7e5;}</style></defs><path class="cls-1" d="M216.23,189.8c-30.66-.43-60.32-5.27-87.58-20.28-17.9-9.86-32.91-23-41.57-41.79C72.48,96,77,60.3,108.24,34.72,128.87,17.84,152.78,8.3,178.69,3.59c38.91-7.07,76.92-4,113.54,11.61a126,126,0,0,1,39.64,26.42c31.06,30.64,25.51,76.89,2.58,103.48-18,20.91-41.56,32.21-67.75,38.81C250.15,188.08,233.26,189.55,216.23,189.8ZM180.08,46.34c-15.43,5.84-30.47,2.84-45.4-2.1-6.16-2-12.32-4.08-18.4-6.33-1.94-.72-3.24-.74-4.9.68C101.93,46.75,94,56.07,89.14,67.69,84.65,78.34,84.68,78.27,95.89,81c16.19,3.91,32.33,8.07,46.77,16.8,1.94,1.18,2.92.31,4.37-.54,5.11-3,10.25-2.88,14.92.77a4.31,4.31,0,0,0,5.19.7c6.25-2.6,12.24-1.64,17,3.24a6.46,6.46,0,0,0,6,2.19c8.53-.65,14.46,4.29,15.49,12.7.26,2,.54,3,2.94,3.58,10.22,2.37,14.53,9.14,12.88,19.58-.2,1.26-1.15,2.51.72,3.34,4,1.8,8.12,3.06,12.54,1.57,2.57-.87,3.72-2,1.23-4.48-3.06-3-5.88-6.35-8.75-9.6-.72-.82-1.84-1.78-.82-3,1.25-1.5,2.47-.39,3.42.46,3.58,3.24,7.1,6.54,10.61,9.86,3.66,3.47,8.54,3.72,12,.52,4.26-3.92,1.17-6.76-1.43-9.67-3.33-3.72-6.68-7.43-10-11.19-.82-.94-2.24-2-.87-3.38s2.48,0,3.48.77c1.42,1.15,2.78,2.39,4.1,3.65,3.25,3.11,6.38,6.35,9.7,9.37,3.84,3.51,9.52,3,13.37-1.1,3.13-3.31,2.85-6.84-1.1-10.91-4.64-4.77-9.4-9.44-14.11-14.16-.7-.7-1.42-1.4-2.09-2.14-.8-.89-1.62-1.89-.63-3.06s2.14-.28,3.05.37a39.26,39.26,0,0,1,3.06,2.57c5.45,4.9,10.82,9.89,16.36,14.68a9,9,0,0,0,13-1c2.66-3.19,2-7.34-2.11-10.88-16.41-14.12-32.77-28.32-49.4-42.18-10.75-9-16.74-8.94-28.21-.89-4.63,3.25-9,6.93-13.66,10.09-7.31,4.92-15.13,4.66-22.84,1.12-5.43-2.5-6.09-6.72-2.15-11.21,3.62-4.12,7.29-8.19,10.95-12.28.37-.21,1-.41.57-.92C181.21,46.1,180.53,46.31,180.08,46.34Zm36,127.7a190.28,190.28,0,0,0,45.52-5.21c26-6.27,49.82-16.77,68.49-36.78,11-11.76,17.27-25.52,18-41.69.11-2.42.14-5.07-3.59-4.15A349.2,349.2,0,0,0,296,101.52c-1.57.64-2.24,1.12-1.78,3.21,2.15,9.81-2.63,16.39-12.46,17.15-2.46.19-3.44,1-4.12,3.25-2,6.67-7,10-13.65,10.65a6,6,0,0,0-5.11,3c-3.22,4.84-7.76,7.69-13.9,7.17-1.15-.1-2.36-.32-3.34.57-6.87,6.25-14.29,5-21.83,1.53a3.71,3.71,0,0,0-4.08.19c-9.22,5.76-16,4.5-23-4.15-.89-1.1-1.46-1.94-3.17-1.7-5.77.83-10.47-1.38-13.9-6a5.54,5.54,0,0,0-5-2.44c-6.08-.1-10.43-3.27-13-8.63a5.38,5.38,0,0,0-5.13-3.59c-7.59-.73-13-7.14-11.8-14.53.64-4-1-5.22-3.89-6.69-15.6-7.89-32.42-11.9-49.29-15.83-2.92-.67-3,.66-3,2.76a55,55,0,0,0,1.54,14.85C91,122.11,103.71,136.07,120,147.09,149,166.74,181.74,173.37,216.11,174Zm5.94-140.51c-12-.12-22.63,3.69-31.31,12.1-5.62,5.44-10.84,11.29-16.35,16.84-2.18,2.2-1.31,3.45,1,4.32,5.46,2,10.87,1.88,15.82-1.32,3.76-2.44,7.29-5.25,10.83-8,16.58-13,23.86-13.12,40,.3,15,12.44,29.68,25.25,44.41,38,2.12,1.83,3.73,2.42,6.54,1.2a274.46,274.46,0,0,1,49.76-16.19c3.63-.81,4.45-2.16,3.4-5.71-3.88-13.18-11.48-23.86-21.25-33.26-2.5-2.41-4.46-2.83-7.77-1.4-23.09,10-46.13,10.21-69.07-.79A59.39,59.39,0,0,0,222.05,33.53Zm94.36,1.37A120.77,120.77,0,0,0,286,18C250,4.09,212.92,1.88,175.24,9.44c-18.55,3.73-36.14,10.28-52.14,20.61-1.19.77-3.26,1.21-3.12,2.84s2.2,1.7,3.55,2.14c4.74,1.55,9.66,2.65,14.23,4.58,17.22,7.26,34.24,3.63,51.29-.5a10.18,10.18,0,0,0,3.46-1.88C201,30.85,210.68,28.35,221,28.1c11.91-.29,22.8,3.65,33.56,8.38C275.13,45.53,295.55,44,316.41,34.9ZM160.88,114.23c.14,1.39.26,2.17.29,3,.38,9.61,5.57,13.36,14.69,10.33,3.13-1,2.29,1.08,2.58,2.53,1.09,5.5,7.59,9.47,12,6.71,4-2.48,4.77-1.66,5.8,2.51,1.42,5.72,7.57,8.55,13.05,6.78a10.62,10.62,0,0,0,7.1-13.06A10.34,10.34,0,0,0,204,125.72c-4,1.1-5.1.69-3.75-3.71,1.21-3.92,1-8.11-2.88-10.82-3.71-2.59-7.7-3.13-11.54-.14-2.19,1.7-2.57.52-3.21-1.46-1.76-5.43-5.55-7.59-11-6.75-3.85.59-6.25,3.27-8.69,6-2.88-7.42-7-10.06-12.12-7.88a8.2,8.2,0,0,0-4.17,11.24C149.1,117.12,153.84,117.92,160.88,114.23Z"/><path class="cls-1" d="M84.23,273.41c0,6.74-.14,12.4.06,18,.11,2.92-1,3.58-3.73,3.63-10.38.18-10.38.28-10.38-9.85,0-8.32.09-16.64,0-25-.11-7.7-3.51-11.47-10.07-11.54-6.72-.08-10.9,4-11,11.38q-.3,15.22,0,30.45c.07,3.32-.61,4.61-4.29,4.55-9.83-.16-9.84,0-9.84-10,0-8.32,0-16.64,0-25-.06-7.55-3.2-11.26-9.52-11.44-6.86-.19-11.13,3.64-11.34,11-.29,10.31-.23,20.64,0,30.95.07,3.51-1,4.45-4.44,4.4-9.51-.15-9.51,0-9.51-9.27,0-9-.23-18,.05-27,.58-18.57,18.5-30.75,34.11-22.28,6.36,3.45,9.8,3.56,16.14.05,13.93-7.73,30.6,1.62,33.25,17.4C84.77,260.83,84,267.68,84.23,273.41Z"/><path class="cls-2" d="M255.59,370c-14.5,14.31-34.57,4.38-38.87-12.75a46.51,46.51,0,0,1,.15-23.23c3.82-14.7,16.11-21.65,32.64-18.64,13.63,2.49,21.22,11.35,21.58,25.82q.41,16.47,0,33c-.34,13.54-8.46,23.83-20.26,26.36-13.45,2.88-26.6-2.71-32-13.62-2.31-4.67-2.07-5.08,3.29-5.05s10.36-.46,15.21,3.73c5.36,4.61,12.92,2,16.43-4.42A17.43,17.43,0,0,0,255.59,370Zm.24-23.22a23.34,23.34,0,0,0-3.18-13.37,10.33,10.33,0,0,0-10.09-5.13c-4.49.27-8,2.19-9.71,6.59a32.4,32.4,0,0,0-1.17,20.55c1.29,5,4.37,8.08,9.76,8.51,6,.48,10.29-1.83,12.56-6.92A24.69,24.69,0,0,0,255.83,346.74Z"/><path class="cls-2" d="M112.14,369.16c0,6.62.06,12.07,0,17.51-.1,7.53-6.92,11.93-14,9.2-1.54-.59-1.36-1.69-1.36-2.8,0-18.29-.75-36.63.29-54.86s16.58-24.4,31.92-22.86c15,1.51,23.69,11.5,24.53,26.63.39,7-.2,13.9-2.92,20.53A22.71,22.71,0,0,1,112.14,369.16Zm.21-22.2c.16,2.08,0,4.91,1,7.67,2,5.86,6,9.18,11.6,9.3s9.9-2.91,11.75-8.95a27.36,27.36,0,0,0-.81-19.53c-2.19-5-6.26-7.14-11.63-6.9s-8.63,3.07-10.5,7.85C112.47,339.56,112.35,342.89,112.35,347Z"/><path class="cls-1" d="M351.85,242.8c0-6.08,0-10.83,0-15.58,0-4.34,1.6-7.75,5.67-9.74,7.42-3.62,9.9-2.14,9.9,5.93,0,14.3-.52,28.63.13,42.9,1,21.44-12.8,33-35.78,29.24-11.84-1.93-18.24-8.5-20.59-20.67a43.48,43.48,0,0,1,3.18-27.27C321.22,233,341.42,229.8,351.85,242.8Zm-25.52,23.4a23.89,23.89,0,0,0,1.41,9.31c1.84,5,5.31,8,10.77,8.19s9.43-2.16,11.6-7.07a25.83,25.83,0,0,0-.2-21.78c-2.09-4.65-6-7-11.17-7s-8.67,2.79-10.68,7.55A24.89,24.89,0,0,0,326.33,266.2Z"/><path class="cls-1" d="M127,269.66c-6,0-12,.08-18,0-2.79-.06-3.34.91-2.8,3.57,1.92,9.4,14.52,14.56,22.19,8.41,5.57-4.45,11.47-1.82,17.18-2.26,2.37-.18.82,2.27.22,3.33A24.81,24.81,0,0,1,130.74,295c-8.61,2.49-17.1,2.23-25.29-1.74-7.69-3.72-12.51-9.64-14.14-18.15A47.26,47.26,0,0,1,91,258.18c2.5-14.92,13.58-24,28.65-23.81,16,.22,26.33,9.32,28.42,25.1.13,1,.26,2,.32,3,.44,7.2.43,7.2-6.92,7.2Zm-7.89-10.32c3.49,0,7-.08,10.48,0,2.66.08,3-1,2.34-3.34-1.5-5.32-6.25-8.88-12.38-9a12.56,12.56,0,0,0-12.66,9.28c-.59,2.19-.11,3.1,2.25,3C112.47,259.27,115.8,259.34,119.12,259.34Z"/><path class="cls-2" d="M306.84,377.18c-18.54-.06-29.74-11.78-29.74-31.12s11.51-31.26,30.3-31.19c18.11.08,29.83,12.55,29.56,31.5C336.69,365.72,325.43,377.25,306.84,377.18Zm13.88-31a28.87,28.87,0,0,0-1-8.36c-2.08-6.56-6.24-9.9-12.61-10-6.53-.07-11.24,3.37-13,10.09a29.2,29.2,0,0,0,.76,18.58c2.15,5.34,6.42,7.89,12.12,7.87s9.81-2.64,12.05-8A24.46,24.46,0,0,0,320.72,346.16Z"/><path class="cls-1" d="M431.72,265.33c-.41,26-20.37,36.05-42.76,28.77a15.94,15.94,0,0,1-2.73-1.23c-10.73-5.83-16.47-21-13.49-35.49,2.79-13.6,11.92-22,25.16-23.25C418.39,232.24,431.83,244.63,431.72,265.33Zm-16.08.05a29.41,29.41,0,0,0-.87-7.91c-2-6.86-6.28-10.46-12.77-10.51-6.68-.06-11.51,3.71-13.17,10.67a29.07,29.07,0,0,0,.85,17.69,12,12,0,0,0,10.5,8.07c4.78.48,9-.75,11.92-4.74S415.71,270.14,415.64,265.38Z"/><path class="cls-1" d="M305.53,263.21c0,4,.1,8,0,12-.26,8.94-4.61,15.2-12.92,18.38a47,47,0,0,1-25.6,1.93c-7.71-1.42-12.33-6.79-13.19-14.32-1-8.46,2.48-15.25,9.54-18.66,4.88-2.36,10.2-2.89,15.48-3.61a54,54,0,0,0,8.28-1.69,4.42,4.42,0,0,0,3.32-4.5,5.38,5.38,0,0,0-3.32-5.12c-6.2-2.9-13.26-.74-16.31,5.35a2.77,2.77,0,0,1-3,1.82c-1.83,0-3.67,0-5.5,0-7.51,0-7.74-.35-5.22-7.4A17.45,17.45,0,0,1,268.83,236a39.93,39.93,0,0,1,27.84,1.37c5.9,2.45,8.58,7.16,8.82,13.32C305.66,254.88,305.52,259.05,305.53,263.21Zm-15.22,7.68c-.76-1.08,1.33-4.26-1.55-3.85a83.73,83.73,0,0,0-15.38,4c-3.92,1.36-4.66,4.91-4,8.69s3.46,5.06,6.88,5.28C284.7,285.51,290.13,280.11,290.31,270.89Z"/><path class="cls-2" d="M209.61,344.43c0,4,.07,8,0,12-.18,9-4.48,15.22-12.84,18.37a45.82,45.82,0,0,1-26.52,1.84c-7-1.56-11.55-6.84-12.44-14-1.05-8.36,2.39-15.38,9.28-18.84,5.33-2.67,11.19-3.06,16.95-3.92a46.87,46.87,0,0,0,6.36-1.18c2.39-.7,4.17-2.21,4.08-5-.09-2.62-1.49-4.23-4-5.16-6.62-2.51-12.1-.63-15.72,5.8a2.61,2.61,0,0,1-2.7,1.55h-5c-8.44,0-8.86-.68-5.6-8.51a17.33,17.33,0,0,1,12-10.45A42,42,0,0,1,200,318.16c6.31,2.41,9.47,7.1,9.64,13.78C209.7,336.1,209.61,340.27,209.61,344.43ZM194.45,352c-.78-1.05,1.39-4.2-1.59-3.75a84.15,84.15,0,0,0-15.33,3.93c-4.12,1.45-4.82,5.21-4,9.11.79,3.72,3.66,4.79,7.1,4.89C189.19,366.39,194.19,361.34,194.45,352Z"/><path class="cls-1" d="M239.48,256.8c-3.63.58-6.81.07-9.16-5.11-2.89-6.36-14.52-6-18.15.43-4.79,8.48-4.74,17.59-.47,26.33,2.14,4.39,6.49,5.39,11.11,5.08s7.86-2.72,8.86-7.35c.58-2.7,2-3.39,4.5-3.21a60,60,0,0,0,9,0c3.59-.29,4,1.38,2.94,4.14a42.39,42.39,0,0,1-2.51,6c-6.14,10.87-17.94,15.41-32.54,12.65-11.05-2.1-18.66-10.39-20.45-22.35a47,47,0,0,1,.07-14.93c1.75-10.15,6.52-18.41,16.68-21.87,11.24-3.82,22.4-3.27,32.32,4,4.37,3.22,6,8.27,6.9,13.47.34,1.86-.1,2.85-2.22,2.74S242.35,256.8,239.48,256.8Z"/><path class="cls-1" d="M155.72,275.36c.38-5.76-.74-12.59.86-19.34,3.22-13.67,17.18-23.52,30.69-21.65,1.61.23,2.41.81,2.33,2.49-.07,1.33,0,2.66,0,4-.05,2.81.78,6.15-.46,8.29s-4.87.47-7.42,1c-6.22,1.2-9.64,4.6-10.28,11.07-1,9.95-.35,19.94-.38,29.91,0,2.89-.56,4-3.8,4-11.52.09-11.52.23-11.52-11.24Z"/><path class="cls-2" d="M216.11,174c-34.37-.67-67.12-7.3-96.12-26.95-16.28-11-29-25-33.83-44.74A55,55,0,0,1,84.62,87.5c.06-2.1.11-3.43,3-2.76,16.87,3.93,33.69,7.94,49.29,15.83,2.89,1.47,4.53,2.73,3.89,6.69-1.18,7.39,4.21,13.8,11.8,14.53a5.38,5.38,0,0,1,5.13,3.59c2.53,5.36,6.88,8.53,13,8.63a5.54,5.54,0,0,1,5,2.44c3.43,4.58,8.13,6.79,13.9,6,1.71-.24,2.28.6,3.17,1.7,7,8.65,13.76,9.91,23,4.15a3.71,3.71,0,0,1,4.08-.19c7.54,3.46,15,4.72,21.83-1.53,1-.89,2.19-.67,3.34-.57,6.14.52,10.68-2.33,13.9-7.17a6,6,0,0,1,5.11-3c6.62-.7,11.62-4,13.65-10.65.68-2.23,1.66-3.06,4.12-3.25,9.83-.76,14.61-7.34,12.46-17.15-.46-2.09.21-2.57,1.78-3.21a349.2,349.2,0,0,1,48.51-15.31c3.73-.92,3.7,1.73,3.59,4.15-.72,16.17-7,29.93-18,41.69-18.67,20-42.49,30.51-68.49,36.78A190.28,190.28,0,0,1,216.11,174Z"/><path class="cls-3" d="M180.81,47.23c-3.66,4.09-7.33,8.16-10.95,12.28-3.94,4.49-3.28,8.71,2.15,11.21,7.71,3.54,15.53,3.8,22.84-1.12,4.69-3.16,9-6.84,13.66-10.09,11.47-8,17.46-8.07,28.21.89,16.63,13.86,33,28.06,49.4,42.18,4.11,3.54,4.77,7.69,2.11,10.88a9,9,0,0,1-13,1c-5.54-4.79-10.91-9.78-16.36-14.68a39.26,39.26,0,0,0-3.06-2.57c-.91-.65-2-1.64-3.05-.37s-.17,2.17.63,3.06c.67.74,1.39,1.44,2.09,2.14,4.71,4.72,9.47,9.39,14.11,14.16,3.95,4.07,4.23,7.6,1.1,10.91-3.85,4.06-9.53,4.61-13.37,1.1-3.32-3-6.45-6.26-9.7-9.37-1.32-1.26-2.68-2.5-4.1-3.65-1-.8-2.19-2-3.48-.77s0,2.44.87,3.38c3.29,3.76,6.64,7.47,10,11.19,2.6,2.91,5.69,5.75,1.43,9.67-3.47,3.2-8.35,3-12-.52-3.51-3.32-7-6.62-10.61-9.86-1-.85-2.17-2-3.42-.46-1,1.22.1,2.18.82,3,2.87,3.25,5.69,6.55,8.75,9.6,2.49,2.48,1.34,3.61-1.23,4.48-4.42,1.49-8.51.23-12.54-1.57-1.87-.83-.92-2.08-.72-3.34,1.65-10.44-2.66-17.21-12.88-19.58-2.4-.56-2.68-1.55-2.94-3.58-1-8.41-7-13.35-15.49-12.7a6.46,6.46,0,0,1-6-2.19c-4.76-4.88-10.75-5.84-17-3.24A4.31,4.31,0,0,1,162,98c-4.67-3.65-9.81-3.8-14.92-.77-1.45.85-2.43,1.72-4.37.54C128.22,89,112.08,84.88,95.89,81c-11.21-2.7-11.24-2.63-6.75-13.28,4.89-11.62,12.79-20.94,22.24-29.1,1.66-1.42,3-1.4,4.9-.68,6.08,2.25,12.24,4.29,18.4,6.33,14.93,4.94,30,7.94,45.4,2.1Z"/><path class="cls-3" d="M222.05,33.53a59.39,59.39,0,0,1,26,6.07c22.94,11,46,10.77,69.07.79,3.31-1.43,5.27-1,7.77,1.4,9.77,9.4,17.37,20.08,21.25,33.26,1.05,3.55.23,4.9-3.4,5.71A274.46,274.46,0,0,0,293,97c-2.81,1.22-4.42.63-6.54-1.2-14.73-12.75-29.42-25.56-44.41-38-16.16-13.42-23.44-13.28-40-.3-3.54,2.77-7.07,5.58-10.83,8-4.95,3.2-10.36,3.34-15.82,1.32-2.32-.87-3.19-2.12-1-4.32,5.51-5.55,10.73-11.4,16.35-16.84C199.42,37.22,210,33.41,222.05,33.53Z"/><path class="cls-2" d="M316.41,34.9c-20.86,9.06-41.28,10.63-61.83,1.58-10.76-4.73-21.65-8.67-33.56-8.38-10.34.25-20.06,2.75-28.51,9.13a10.18,10.18,0,0,1-3.46,1.88c-17.05,4.13-34.07,7.76-51.29.5-4.57-1.93-9.49-3-14.23-4.58-1.35-.44-3.42-.47-3.55-2.14s1.93-2.07,3.12-2.84c16-10.33,33.59-16.88,52.14-20.61C212.92,1.88,250,4.09,286,18A120.77,120.77,0,0,1,316.41,34.9Z"/><path class="cls-3" d="M160.88,114.23c-7,3.69-11.78,2.89-14.27-2A8.2,8.2,0,0,1,150.78,101c5.08-2.18,9.24.46,12.12,7.88,2.44-2.77,4.84-5.45,8.69-6,5.49-.84,9.28,1.32,11,6.75.64,2,1,3.16,3.21,1.46,3.84-3,7.83-2.45,11.54.14,3.87,2.71,4.09,6.9,2.88,10.82-1.35,4.4-.26,4.81,3.75,3.71A10.34,10.34,0,0,1,216.43,133a10.62,10.62,0,0,1-7.1,13.06c-5.48,1.77-11.63-1.06-13.05-6.78-1-4.17-1.81-5-5.8-2.51-4.45,2.76-10.95-1.21-12-6.71-.29-1.45.55-3.57-2.58-2.53-9.12,3-14.31-.72-14.69-10.33C161.14,116.4,161,115.62,160.88,114.23Z"/><path class="cls-3" d="M180.08,46.34c.45,0,1.13-.24,1.3,0,.41.51-.2.71-.57.92Z"/></svg>